<?xml version="1.0" standalone="no"?> <!DOCTYPE svg PUBLIC "-//W3C//DTD SVG 1.0//EN" "http://www.w3.org/TR/2001/REC-SVG-20010904/DTD/svg10.dtd" > <svg xmlns="http://www.w3.org/2000/svg" width="100%" height="100%">
<defs >
<font horiz-adv-x="617" ><font-face
    font-family=""
    units-per-em="1000"
    panose-1="2 11 8 3 4 0 0 8 0 4"
    ascent="1186"
    descent="-303"
    alphabetic="0" />
<missing-glyph horiz-adv-x="737" d="M45 -1V775H692V-1H45ZM129 82H608V692H129V82ZM384 307H301L282 413H304Q354 413 381 429T409 475Q409 504 386 517T328 531Q304 531 282 524T236 504L250 601Q274 614 301 621T363 629Q426 629 476 597T527 487Q527 432
494 397T391 349L384 307ZM276 138V246H416V138H276Z" />
<glyph unicode=" " glyph-name="space" horiz-adv-x="284" />
<glyph unicode="!" glyph-name="exclam" horiz-adv-x="333" d="M109 265L60 736H273L224 265H109ZM68 0V168H264V0H68Z" />
<glyph unicode="&quot;" glyph-name="quotedbl" horiz-adv-x="523" d="M81 425V777H213V425H81ZM310 425V777H442V425H310Z" />
<glyph unicode="#" glyph-name="numbersign" horiz-adv-x="729" d="M350 0L386 175H272L236 0H118L154 175H47L64 283H176L211 454H97L113 562H233L269 736H386L351 562H465L501 736H618L583 562H682L665 454H561L526 283H632L615 175H504L468 0H350ZM294 283H408L443
454H329L294 283Z" />
<glyph unicode="$" glyph-name="dollar" horiz-adv-x="638" d="M565 215Q565 132 518 79T388 8V-132H244V2Q201 6 162 16T91 43L75 193Q124 166 183 151T296 135Q353 135 379 155T406 209Q406 235 386 255T300 299L268 310Q175 343 129 387T82 515Q82 598 123
648T244 716V857H388V722Q425 718 456 708T511 686L526 542Q494 560 439 575T336 591Q285 591 262 571T239 519Q239 491 263 470T350 426L384 414Q486 376 525 330T565 215Z" />
<glyph unicode="%" glyph-name="percent" horiz-adv-x="1224" d="M267 262Q173 262 128 320T83 504Q83 629 127 688T267 747Q363 747 407 688T451 504Q451 377 406 320T267 262ZM788 740H915L436 0H307L788 740ZM267 362Q297 362 312 393T327 504Q327 583 311
615T267 648Q239 648 223 616T207 504Q207 425 222 394T267 362ZM957 -15Q863 -15 818 42T773 226Q773 351 817 410T957 469Q1053 469 1097 410T1141 226Q1141 99 1096 42T957 -15ZM957 85Q987 85 1002 116T1017 226Q1017 305 1001 337T957 370Q929 370 913 338T897
226Q897 147 912 116T957 85Z" />
<glyph unicode="&amp;" glyph-name="ampersand" horiz-adv-x="812" d="M602 0L543 70Q490 30 428 9T299 -12Q171 -12 108 49T44 199Q44 275 84 328T209 414Q167 458 151 495T135 570Q135 653 196 704T361 756Q404 756 449 746T523 718L537 557Q505 581 464 599T382
618Q347 618 328 601T309 553Q309 529 321 511T358 467L546 275Q563 311 575 353T593 445H745Q735 367 709 299T644 176L817 0H602ZM201 214Q201 165 234 141T322 116Q360 116 395 128T460 164L291 336Q242 311 222 281T201 214Z" />
<glyph unicode="&apos;" glyph-name="quotesingle" horiz-adv-x="294" d="M81 425V777H213V425H81Z" />
<glyph unicode="(" glyph-name="parenleft" horiz-adv-x="426" d="M222 -155Q150 -70 104 51T57 310Q57 461 105 577T229 775H416Q332 685 277 573T222 312Q222 179 272 66T416 -155H222Z" />
<glyph unicode=")" glyph-name="parenright" horiz-adv-x="426" d="M7 -155Q100 -63 152 49T204 308Q204 458 153 568T8 775H197Q278 688 323 572T369 309Q369 161 323 47T197 -155H7Z" />
<glyph unicode="*" glyph-name="asterisk" horiz-adv-x="577" d="M381 243L289 381L196 243L92 318L195 449L35 494L74 616L231 558L225 725H352L346 558L503 616L542 494L382 449L485 318L381 243Z" />
<glyph unicode="+" glyph-name="plus" horiz-adv-x="650" d="M575 241H396V32H252V241H73V385H252V594H396V385H575V241Z" />
<glyph unicode="," glyph-name="comma" horiz-adv-x="330" d="M57 -165L103 193H261L162 -165H57Z" />
<glyph unicode="-" glyph-name="hyphen" horiz-adv-x="476" d="M61 234V378H416V234H61Z" />
<glyph unicode="." glyph-name="period" horiz-adv-x="332" d="M68 0V168H264V0H68Z" />
<glyph unicode="/" glyph-name="slash" horiz-adv-x="401" d="M248 736H395L153 -193H6L248 736Z" />
<glyph unicode="0" glyph-name="zero" horiz-adv-x="699" d="M345 -12Q196 -12 124 79T51 367Q51 560 126 655T351 751Q505 751 576 657T648 369Q648 173 570 81T345 -12ZM349 123Q409 123 443 178T478 368Q478 502 444 559T349 617Q290 617 256 561T221 368Q221
236 254 180T349 123Z" />
<glyph unicode="1" glyph-name="one" horiz-adv-x="474" d="M185 0V591H44L64 736H351V0H185Z" />
<glyph unicode="2" glyph-name="two" horiz-adv-x="600" d="M40 0V63L235 294Q304 376 331 419T358 504Q358 558 320 583T225 608Q179 608 142 594T62 548L79 699Q119 725 166 738T270 751Q366 751 444 705T522 550Q522 483 490 422T384 272L276 146H546V0H40Z" />
<glyph unicode="3" glyph-name="three" horiz-adv-x="607" d="M249 -10Q197 -10 155 -3T74 17L56 160Q103 147 147 140T238 133Q295 133 340 156T386 237Q386 280 351 311T194 370V399L317 584H66V736H516V673L363 444Q470 411 510 358T550 240Q550 118 466 54T249 -10Z" />
<glyph unicode="4" glyph-name="four" horiz-adv-x="666" d="M589 142H515V0H354V142H42V235L362 736H515V275H589V142ZM184 275H354V547L184 275Z" />
<glyph unicode="5" glyph-name="five" horiz-adv-x="610" d="M255 -10Q203 -10 161 -3T79 18L57 160Q103 147 146 140T235 133Q300 133 343 158T386 241Q386 285 333 314T96 366L95 736H521V582H231V468Q430 441 490 379T551 235Q551 122 469 56T255 -10Z" />
<glyph unicode="6" glyph-name="six" horiz-adv-x="654" d="M600 254Q600 109 514 49T325 -12Q223 -12 140 49T56 261Q56 368 109 477T314 736H518Q440 667 385 605T293 487Q447 485 523 421T600 254ZM216 262Q216 183 250 151T328 119Q381 119 410 152T440 243Q440
295 402 336T250 377Q247 377 244 377T237 377Q226 346 221 318T216 262Z" />
<glyph unicode="7" glyph-name="seven" horiz-adv-x="562" d="M95 0L326 584H39V736H538L254 0H95Z" />
<glyph unicode="8" glyph-name="eight" horiz-adv-x="693" d="M627 210Q627 106 553 47T345 -12Q212 -12 139 43T65 198Q65 251 92 295T173 368Q133 394 113 435T92 529Q92 631 161 690T355 750Q473 750 540 696T607 542Q607 493 586 450T521 376Q575 349 601
306T627 210ZM337 418L407 407Q430 431 441 457T453 515Q453 571 424 598T349 625Q303 625 274 598T245 515Q245 474 268 450T337 418ZM225 222Q225 167 258 140T347 112Q402 112 435 137T468 219Q468 258 445 282T353 318L285 328Q254 306 240 280T225 222Z" />
<glyph unicode="9" glyph-name="nine" horiz-adv-x="654" d="M598 475Q598 368 545 259T340 0H136Q214 69 269 131T361 249Q207 251 131 315T54 482Q54 627 140 687T329 748Q431 748 514 687T598 475ZM214 493Q214 441 252 400T404 359Q407 359 410 359T417 359Q428
390 433 418T438 474Q438 553 404 585T326 617Q273 617 244 584T214 493Z" />
<glyph unicode=":" glyph-name="colon" horiz-adv-x="336" d="M70 37V205H266V37H70ZM70 376V544H266V376H70Z" />
<glyph unicode=";" glyph-name="semicolon" horiz-adv-x="362" d="M57 -165L103 193H261L162 -165H57ZM85 376V544H281V376H85Z" />
<glyph unicode="&lt;" glyph-name="less" horiz-adv-x="650" d="M530 229V64L79 257V385L530 578V420L238 325L530 229Z" />
<glyph unicode="=" glyph-name="equal" horiz-adv-x="650" d="M575 366H73V509H575V366ZM575 116H73V260H575V116Z" />
<glyph unicode="&gt;" glyph-name="greater" horiz-adv-x="650" d="M571 257L120 64V222L412 317L120 413V578L571 385V257Z" />
<glyph unicode="?" glyph-name="question" horiz-adv-x="521" d="M259 243H147L120 426H153Q230 426 272 452T315 527Q315 568 282 589T197 611Q155 611 116 599T38 560L58 706Q92 726 136 739T237 753Q341 753 415 703T490 545Q490 461 435 408T271 337L259 243ZM107
0V168H303V0H107Z" />
<glyph unicode="@" glyph-name="at" horiz-adv-x="1014" d="M513 -203Q312 -203 180 -77T48 286Q48 514 185 649T542 784Q730 784 848 682T967 401Q967 266 891 165T645 63H579Q450 63 375 117T300 288Q300 399 362 460T536 521H687V182Q768 185 798 249T829 401Q829
525 746 591T537 658Q388 658 288 562T188 289Q188 101 290 12T550 -78Q585 -78 639 -71T727 -48L689 -180Q652 -191 615 -197T513 -203ZM568 178V405H525Q475 405 451 377T426 296Q426 233 457 206T568 178Z" />
<glyph unicode="A" glyph-name="A" horiz-adv-x="799" d="M576 0L531 121H251L210 0H36L295 736H481L763 0H576ZM284 235H494L384 550L284 235Z" />
<glyph unicode="B" glyph-name="B" horiz-adv-x="718" d="M657 202Q657 100 582 50T379 0H79V736H359Q486 736 556 686T626 542Q626 482 598 438T496 370Q586 355 621 311T657 202ZM243 419H338Q404 419 434 439T464 510Q464 559 430 581T329 604H243V419ZM243
133H349Q419 133 451 155T484 229Q484 279 446 299T339 319H243V133Z" />
<glyph unicode="C" glyph-name="C" horiz-adv-x="689" d="M413 -14Q284 -14 171 64T58 353Q58 549 159 650T415 751Q470 751 522 739T613 704L637 541Q592 572 545 584T449 597Q343 597 286 538T228 368Q228 239 295 189T452 139Q504 139 550 151T642 192L622
32Q578 8 527 -3T413 -14Z" />
<glyph unicode="D" glyph-name="D" horiz-adv-x="775" d="M79 0V736H342Q546 736 632 638T718 375Q718 203 624 102T343 0H79ZM243 143H314Q434 143 489 198T545 372Q545 485 493 539T315 593H243V143Z" />
<glyph unicode="E" glyph-name="E" horiz-adv-x="634" d="M79 0V736H562V593H243V428H530V316H243V143H573V0H79Z" />
<glyph unicode="F" glyph-name="F" horiz-adv-x="609" d="M79 0V736H558V593H243V387H526V244H243V0H79Z" />
<glyph unicode="G" glyph-name="G" horiz-adv-x="749" d="M420 -14Q289 -14 174 64T58 354Q58 558 160 654T429 751Q487 751 540 739T634 702L656 539Q610 567 559 582T451 598Q345 598 287 535T229 365Q229 234 285 181T420 128Q442 128 465 131T510 143V381H673V40Q619
12 556 -1T420 -14Z" />
<glyph unicode="H" glyph-name="H" horiz-adv-x="774" d="M531 0V283H243V0H79V736H243V426H531V736H695V0H531Z" />
<glyph unicode="I" glyph-name="I" horiz-adv-x="366" d="M98 0V736H267V0H98Z" />
<glyph unicode="J" glyph-name="J" horiz-adv-x="469" d="M148 -7Q126 -7 102 -5T53 4L38 153Q56 148 77 146T114 143Q175 143 200 174T226 270V736H390V263Q390 109 326 51T148 -7Z" />
<glyph unicode="K" glyph-name="K" horiz-adv-x="747" d="M530 0L333 302L243 188V0H79V736H243V397L498 736H675L449 450L726 0H530Z" />
<glyph unicode="L" glyph-name="L" horiz-adv-x="570" d="M79 0V736H243V143H525V0H79Z" />
<glyph unicode="M" glyph-name="M" horiz-adv-x="964" d="M471 0L239 424V0H90V736H234L485 274L738 736H874V0H718V425L483 0H471Z" />
<glyph unicode="N" glyph-name="N" horiz-adv-x="813" d="M631 0L239 445V0H79V736H185L575 293V736H735V0H631Z" />
<glyph unicode="O" glyph-name="O" horiz-adv-x="815" d="M403 -14Q237 -14 148 83T58 366Q58 550 151 652T411 754Q576 754 666 655T757 369Q757 183 660 85T403 -14ZM409 138Q490 138 539 194T588 367Q588 486 540 544T408 602Q324 602 276 544T227 367Q227
248 274 193T409 138Z" />
<glyph unicode="P" glyph-name="P" horiz-adv-x="676" d="M79 0V736H327Q461 736 542 662T624 463Q624 341 540 261T317 180H243V0H79ZM243 318H302Q380 318 416 352T453 453Q453 520 415 556T302 593H243V318Z" />
<glyph unicode="Q" glyph-name="Q" horiz-adv-x="815" d="M757 369Q757 247 714 161T593 32L700 -150H506L425 -14Q420 -14 415 -14T403 -14Q237 -14 148 83T58 366Q58 550 151 652T411 754Q576 754 666 655T757 369ZM409 138Q490 138 539 194T588 367Q588 486
540 544T408 602Q324 602 276 544T227 367Q227 248 274 193T409 138Z" />
<glyph unicode="R" glyph-name="R" horiz-adv-x="708" d="M243 203V0H79V736H336Q460 736 542 667T624 469Q624 400 595 345T515 254L685 0H481L354 203Q351 203 348 203T341 203H243ZM243 312H302Q380 312 416 347T453 450Q453 519 415 556T302 593H243V312Z" />
<glyph unicode="S" glyph-name="S" horiz-adv-x="637" d="M299 -10Q239 -10 181 1T76 36L58 194Q111 166 174 150T296 133Q357 133 386 155T416 215Q416 241 398 260T322 299L277 315Q178 349 130 396T81 530Q81 638 149 695T344 752Q403 752 456 739T541 709L558
557Q524 576 465 592T356 608Q301 608 276 588T250 535Q250 501 273 482T367 437L402 424Q509 386 547 338T586 217Q586 110 508 50T299 -10Z" />
<glyph unicode="T" glyph-name="T" horiz-adv-x="628" d="M595 576H396V0H231V576H33V736H595V576Z" />
<glyph unicode="U" glyph-name="U" horiz-adv-x="770" d="M380 -14Q232 -14 156 56T79 305V736H243V308Q243 207 284 176T388 144Q456 144 491 179T526 308V736H691V305Q691 137 615 62T380 -14Z" />
<glyph unicode="V" glyph-name="V" horiz-adv-x="778" d="M742 736L476 0H294L36 736H225L395 213L564 736H742Z" />
<glyph unicode="W" glyph-name="W" horiz-adv-x="1053" d="M695 1L530 462L360 1H217L54 736H223L320 254L492 736H576L751 253L846 736H996L840 1H695Z" />
<glyph unicode="X" glyph-name="X" horiz-adv-x="754" d="M516 0L368 257L221 0H24L255 364L30 736H233L383 492L523 736H719L490 383L724 0H516Z" />
<glyph unicode="Y" glyph-name="Y" horiz-adv-x="712" d="M444 240V0H275V240L24 736H221L369 394L511 736H688L444 240Z" />
<glyph unicode="Z" glyph-name="Z" horiz-adv-x="662" d="M610 143V0H51V33L373 593H77V736H604V706L281 143H610Z" />
<glyph unicode="[" glyph-name="bracketleft" horiz-adv-x="433" d="M95 -155V775H405V644H243V-24H405V-155H95Z" />
<glyph unicode="\" glyph-name="backslash" horiz-adv-x="401" d="M154 736L395 -193H247L5 736H154Z" />
<glyph unicode="]" glyph-name="bracketright" horiz-adv-x="433" d="M29 644V775H338V-155H29V-24H190V644H29Z" />
<glyph unicode="^" glyph-name="asciicircum" horiz-adv-x="786" d="M543 192L386 503L230 192H71L346 736H436L715 192H543Z" />
<glyph unicode="_" glyph-name="underscore" horiz-adv-x="595" d="M30 -163V-19H565V-163H30Z" />
<glyph unicode="`" glyph-name="grave" horiz-adv-x="500" d="M325 623H189L56 802H217L325 623Z" />
<glyph unicode="a" glyph-name="a" horiz-adv-x="609" d="M426 0L397 59Q369 27 328 8T231 -11Q153 -11 101 26T48 147Q48 228 123 272T379 327Q370 374 337 393T258 412Q212 412 168 398T84 355L110 510Q147 532 191 543T283 555Q397 555 468 499T540 305V0H426ZM200
160Q200 129 219 114T279 98Q306 98 334 108T382 134V255Q282 245 241 222T200 160Z" />
<glyph unicode="b" glyph-name="b" horiz-adv-x="659" d="M618 274Q618 144 544 66T344 -12Q299 -12 260 -1T187 36L155 0H74V777H232V522Q258 537 291 546T367 556Q477 556 547 486T618 274ZM331 421Q300 421 277 414T232 390V146Q253 133 275 126T328 119Q389
119 423 159T458 271Q458 342 424 381T331 421Z" />
<glyph unicode="c" glyph-name="c" horiz-adv-x="536" d="M313 -12Q214 -12 127 47T40 264Q40 411 115 483T313 556Q359 556 403 547T477 519L490 380Q455 401 418 409T346 418Q278 418 239 380T200 276Q200 191 245 159T349 126Q384 126 419 133T490 158L482
24Q444 5 403 -3T313 -12Z" />
<glyph unicode="d" glyph-name="d" horiz-adv-x="659" d="M485 0L458 41Q425 16 386 2T295 -12Q184 -12 112 58T40 268Q40 406 120 481T320 556Q348 556 375 552T428 537V777H586V0H485ZM200 271Q200 202 235 163T327 123Q357 123 381 129T428 154V399Q407 412
385 417T333 423Q270 423 235 383T200 271Z" />
<glyph unicode="e" glyph-name="e" horiz-adv-x="590" d="M496 31Q464 9 422 -1T325 -12Q207 -12 124 54T40 277Q40 422 119 489T305 556Q432 556 492 473T552 246H200Q208 171 249 144T349 116Q398 116 440 127T518 160L496 31ZM314 434Q276 434 244 410T201
326H424Q415 380 387 407T314 434Z" />
<glyph unicode="f" glyph-name="f" horiz-adv-x="411" d="M368 398H253V0H95V398H36V510H95V538Q95 678 152 732T308 787Q329 787 348 785T387 777L396 637Q384 640 372 642T347 644Q298 644 276 620T253 545V510H368V398Z" />
<glyph unicode="g" glyph-name="g" horiz-adv-x="658" d="M585 110Q585 -67 505 -136T274 -206Q234 -206 191 -197T107 -172L89 -28Q140 -55 186 -67T280 -79Q351 -79 386 -48T426 56Q399 40 367 32T294 24Q184 24 113 90T42 283Q42 417 122 486T320 556Q362 556
401 546T477 510L507 543H585V110ZM200 285Q200 217 234 179T326 141Q357 141 380 148T427 174V406Q406 417 385 422T335 428Q271 428 236 391T200 285Z" />
<glyph unicode="h" glyph-name="h" horiz-adv-x="646" d="M326 405Q301 405 279 397T232 373V0H74V777H232V504Q264 529 299 542T375 555Q470 555 523 499T577 304V0H419V281Q419 353 391 379T326 405Z" />
<glyph unicode="i" glyph-name="i" horiz-adv-x="314" d="M72 643V796H241V643H72ZM78 0V543H236V0H78Z" />
<glyph unicode="j" glyph-name="j" horiz-adv-x="314" d="M72 643V796H241V643H72ZM30 -193Q59 -137 68 -68T78 83V543H236V81Q236 -7 220 -74T165 -193H30Z" />
<glyph unicode="k" glyph-name="k" horiz-adv-x="627" d="M430 0L293 219L232 155V0H74V777H232V327L420 543H597L403 336L616 0H430Z" />
<glyph unicode="l" glyph-name="l" horiz-adv-x="322" d="M82 0V777H240V0H82Z" />
<glyph unicode="m" glyph-name="m" horiz-adv-x="976" d="M320 405Q296 405 275 398T232 377V0H74V543H185L218 497Q252 525 288 540T366 555Q422 555 464 537T532 477Q569 513 611 534T704 555Q800 555 853 500T907 312V0H749V293Q749 358 725 381T658 405Q633
405 611 398T565 375Q567 360 568 345T569 312V0H411V293Q411 358 387 381T320 405Z" />
<glyph unicode="n" glyph-name="n" horiz-adv-x="646" d="M328 405Q303 405 280 398T232 374V0H74V543H185L220 494Q254 523 292 539T373 555Q469 555 523 500T577 312V0H419V293Q419 358 395 381T328 405Z" />
<glyph unicode="o" glyph-name="o" horiz-adv-x="645" d="M321 -14Q187 -14 114 63T40 270Q40 395 115 475T323 556Q457 556 531 479T605 272Q605 147 530 67T321 -14ZM323 115Q378 115 412 156T447 273Q447 345 412 386T323 427Q268 427 234 386T199 273Q199
196 234 156T323 115Z" />
<glyph unicode="p" glyph-name="p" horiz-adv-x="659" d="M331 -13Q304 -13 279 -10T232 0V-193H74V543H174L201 503Q233 528 272 542T364 556Q475 556 547 486T619 271Q619 139 542 63T331 -13ZM333 421Q299 421 277 414T232 388V141Q252 130 273 125T323 119Q388
119 423 158T459 270Q459 341 425 381T333 421Z" />
<glyph unicode="q" glyph-name="q" horiz-adv-x="659" d="M585 543V-193H427V21Q399 6 366 -3T292 -12Q182 -12 111 58T40 271Q40 408 120 482T316 556Q359 556 397 545T472 507L505 543H585ZM200 274Q200 202 235 163T327 123Q358 123 381 131T427 156V398Q405
411 384 417T331 423Q270 423 235 384T200 274Z" />
<glyph unicode="r" glyph-name="r" horiz-adv-x="430" d="M404 388Q360 387 315 375T232 344V0H74V543H193L226 473Q263 517 308 535T404 554V388Z" />
<glyph unicode="s" glyph-name="s" horiz-adv-x="521" d="M248 -11Q194 -11 144 -1T60 29L46 166Q83 143 135 129T242 114Q282 114 302 125T322 165Q322 184 307 196T240 222L212 230Q134 251 98 286T62 389Q62 471 116 513T277 556Q320 556 363 548T437 524L450
389Q415 407 366 419T278 431Q239 431 223 419T207 387Q207 369 220 358T280 333L308 326Q404 300 437 263T471 168Q471 78 410 34T248 -11Z" />
<glyph unicode="t" glyph-name="t" horiz-adv-x="432" d="M363 1Q344 -6 326 -8T286 -11Q199 -11 148 31T96 198V420H38V543H96V689H254V543H374V420H254V203Q254 166 270 149T323 132Q336 132 350 134T378 141L363 1Z" />
<glyph unicode="u" glyph-name="u" horiz-adv-x="646" d="M461 0L426 49Q392 20 354 4T273 -12Q177 -12 123 43T69 231V543H227V250Q227 185 251 162T318 138Q343 138 366 145T414 169V543H572V0H461Z" />
<glyph unicode="v" glyph-name="v" horiz-adv-x="622" d="M601 543L373 0H240L21 543H195L318 217L442 543H601Z" />
<glyph unicode="w" glyph-name="w" horiz-adv-x="896" d="M579 0L442 320L310 0H182L25 543H188L273 221L404 543H493L629 218L718 543H871L709 0H579Z" />
<glyph unicode="x" glyph-name="x" horiz-adv-x="595" d="M404 0L297 171L191 0H20L201 270L18 543H202L305 376L408 543H571L397 277L577 0H404Z" />
<glyph unicode="y" glyph-name="y" horiz-adv-x="623" d="M603 543L313 -193H155L240 19L20 543H193L323 174L447 543H603Z" />
<glyph unicode="z" glyph-name="z" horiz-adv-x="568" d="M520 129V0H50V26L296 414H74V543H506V518L260 129H520Z" />
<glyph unicode="{" glyph-name="braceleft" horiz-adv-x="428" d="M391 -168Q242 -168 179 -134T116 -9Q116 44 136 89T156 174Q156 202 131 226T37 250V381Q100 381 128 402T157 462Q157 502 137 540T116 646Q116 721 183 759T391 798L401 652Q337 652 308 637T279
591Q279 557 297 521T315 448Q315 402 292 373T205 320Q271 301 292 271T314 197Q314 154 297 118T279 46Q279 9 303 -6T401 -21L391 -168Z" />
<glyph unicode="|" glyph-name="bar" horiz-adv-x="620" d="M233 -193V775H387V-193H233Z" />
<glyph unicode="}" glyph-name="braceright" horiz-adv-x="428" d="M42 -168L32 -23Q96 -23 125 -8T154 38Q154 65 140 107T126 182Q126 228 145 260T231 311Q165 322 146 358T126 437Q126 478 140 517T154 587Q154 624 130 639T32 654L42 798Q191 798 252 764T314
639Q314 596 297 542T280 445Q280 424 301 403T384 381V250Q329 250 304 232T279 180Q279 140 296 93T314 -15Q314 -90 249 -129T42 -168Z" />
<glyph unicode="~" glyph-name="asciitilde" horiz-adv-x="665" d="M179 193H48Q48 311 91 368T215 426Q265 426 297 412T360 373Q390 348 407 337T444 325Q466 325 476 349T486 418H617Q617 292 572 238T449 184Q398 184 365 199T300 240Q269 266 253 275T222
285Q197 285 188 262T179 193Z" />
</font>
</defs>
</svg>
